<svg xmlns="http://www.w3.org/2000/svg" viewBox="0 0 128 128" width="128" height="128" role="img" aria-label="screenshot-time-machine" text-rendering="geometricPrecision">
  <defs>
    <linearGradient id="stmMark" x1="0" y1="0" x2="1" y2="1">
      <stop offset="0" stop-color="#7FB0F5"/>
      <stop offset="0.22" stop-color="#A98BEB"/>
      <stop offset="0.38" stop-color="#C88AE0"/>
      <stop offset="0.62" stop-color="#FF8C1A"/>
      <stop offset="0.82" stop-color="#FFC24A"/>
      <stop offset="1" stop-color="#F0509F"/>
    </linearGradient>
    <mask id="stmBehind">
      <rect x="0" y="0" width="128" height="128" fill="#fff"/>
      <rect x="42" y="46" width="80" height="72" rx="18" fill="#000"/>
    </mask>
  </defs>

  <g fill="none" stroke-width="5.5" mask="url(#stmBehind)">
    <rect x="12.75" y="16.75" width="66.5" height="58.5" rx="11.25" stroke="#7FB0F5" opacity="0.8"/>
    <rect x="30.75" y="34.75" width="66.5" height="58.5" rx="11.25" stroke="#F0509F" opacity="0.5"/>
  </g>

  <path fill="url(#stmMark)" fill-rule="evenodd" d="M60 50h44a14 14 0 0 1 14 14v36a14 14 0 0 1-14 14H60a14 14 0 0 1-14-14V64a14 14 0 0 1 14-14zm22 16a16 16 0 1 0 0 32 16 16 0 0 0 0-32z"/>
  <path fill="none" stroke="#FF8C1A" stroke-width="6" stroke-linecap="round" stroke-linejoin="round" d="M82 73v9h8"/>
</svg>
